<svg width="13" height="9" viewBox="0 0 13 9" fill="none" xmlns="http://www.w3.org/2000/svg">
<path d="M11.5437 0.96875H8.375V1.85H11.5562L11.5437 0.96875ZM10.875 7.03125C10.6346 7.19053 10.3507 7.27133 10.0625 7.2625C9.87171 7.28239 9.67886 7.26268 9.49604 7.20461C9.31321 7.14653 9.14434 7.05135 9 6.925C8.73313 6.62242 8.5942 6.22803 8.6125 5.825H12.75C12.7798 5.40534 12.744 4.9836 12.6438 4.575C12.5468 4.18626 12.3771 3.81939 12.1438 3.49375C11.9088 3.17788 11.6054 2.91932 11.2563 2.7375C10.8678 2.54596 10.4393 2.44956 10.0063 2.45625C9.59895 2.45327 9.19517 2.5319 8.81875 2.6875C8.47406 2.83281 8.16175 3.04527 7.9 3.3125C7.639 3.58507 7.43689 3.90845 7.30625 4.2625C7.16606 4.64472 7.09619 5.04915 7.1 5.45625C7.09357 5.86913 7.16131 6.27981 7.3 6.66875C7.4178 7.02096 7.6048 7.34607 7.85 7.625C8.10369 7.89885 8.41549 8.11241 8.7625 8.25C9.14944 8.39743 9.56099 8.46955 9.975 8.4625C10.5559 8.48061 11.1294 8.32854 11.625 8.025C12.1256 7.66929 12.486 7.14971 12.6438 6.55625H11.2625C11.1886 6.75258 11.0525 6.91938 10.875 7.03125ZM8.73125 4.45625C8.77989 4.30043 8.86064 4.15652 8.96829 4.0338C9.07593 3.91109 9.20809 3.81228 9.35625 3.74375C9.55247 3.65543 9.76615 3.61269 9.98125 3.61875C10.1366 3.60548 10.2931 3.62598 10.4398 3.67884C10.5865 3.7317 10.72 3.81567 10.8313 3.925C11.0436 4.18496 11.1799 4.49862 11.225 4.83125H8.63125C8.64137 4.70424 8.6644 4.57859 8.7 4.45625H8.73125ZM5.425 4.15625C5.7431 4.02379 6.01951 3.80785 6.225 3.53125C6.41389 3.2375 6.50773 2.89271 6.49375 2.54375C6.506 2.22552 6.44394 1.90882 6.3125 1.61875C6.20207 1.36745 6.0248 1.15127 5.8 0.99375C5.56166 0.829983 5.291 0.719165 5.00625 0.66875C4.66926 0.598071 4.32554 0.564538 3.98125 0.56875H0.25V8.43125H4.0625C4.41043 8.4315 4.75697 8.3874 5.09375 8.3C5.41297 8.21742 5.71539 8.07996 5.9875 7.89375C6.25109 7.71107 6.46572 7.46639 6.6125 7.18125C6.77494 6.86237 6.85447 6.50771 6.84375 6.15C6.85559 5.70671 6.73125 5.27045 6.4875 4.9C6.22537 4.52745 5.83658 4.26307 5.39375 4.15625H5.425ZM1.98125 1.9125H3.6C3.74872 1.91232 3.89717 1.92486 4.04375 1.95C4.17872 1.97 4.30834 2.01675 4.425 2.0875C4.53772 2.15126 4.62905 2.24694 4.6875 2.3625C4.75989 2.50107 4.79438 2.65631 4.7875 2.8125C4.79915 2.94702 4.77857 3.08239 4.72749 3.20738C4.67641 3.33237 4.59628 3.44339 4.49375 3.53125C4.27007 3.68502 4.00243 3.7618 3.73125 3.75H1.98125V1.9125ZM5.00625 6.5625C4.94204 6.68988 4.84493 6.79777 4.725 6.875C4.60019 6.95263 4.46267 7.00764 4.31875 7.0375C4.15879 7.07331 3.99515 7.09009 3.83125 7.0875H1.95625V4.93125H3.83125C4.15301 4.91716 4.47076 5.00701 4.7375 5.1875C4.85801 5.29564 4.95136 5.43064 5.00999 5.58157C5.06862 5.7325 5.0909 5.89511 5.075 6.05625C5.0919 6.22805 5.06835 6.40143 5.00625 6.5625Z" fill="white"/>
</svg>
