<svg width="13" height="10" viewBox="0 0 13 10" fill="none" xmlns="http://www.w3.org/2000/svg">
<path d="M13 1.01562C13 3.63925 13 6.26256 13 8.88619C12.9962 8.89382 12.9905 8.90113 12.9892 8.90908C12.8954 9.5196 12.3863 9.92343 11.7348 9.90498C11.1681 9.88908 10.6009 9.9018 10.0339 9.9018C7.09326 9.9018 4.15229 9.90212 1.21164 9.90149C0.505729 9.90117 0.003325 9.41943 0.00237107 8.72751C-0.00112667 6.20977 -0.00144462 3.69235 0.00618682 1.17461C0.00682278 0.998766 0.0494317 0.808616 0.12511 0.650263C0.341653 0.195556 0.728631 0 1.22436 0C4.74055 0.000635954 8.25674 0.000317924 11.7729 0.000317924C11.8025 0.000317924 11.8321 -0.000318016 11.8616 0.000953892C12.2225 0.0174887 12.5221 0.155173 12.7523 0.440716C12.89 0.610834 12.951 0.809887 13 1.01562ZM1.31085 0.767914C3.05845 2.50025 4.78697 4.21415 6.50214 5.91405C8.22558 4.19157 9.94011 2.47768 11.6508 0.767914C8.22399 0.767914 4.78316 0.767914 1.31085 0.767914ZM11.6527 9.13357C10.4492 7.93003 9.2431 6.72394 8.03161 5.51245C8.00903 5.53407 7.97501 5.56492 7.94258 5.59735C7.5804 5.95889 7.21854 6.32106 6.85637 6.6826C6.62265 6.91568 6.42869 6.91473 6.19179 6.67974C5.81912 6.31057 5.44646 5.9414 5.07601 5.57C5.0439 5.53789 5.02895 5.4886 5.01687 5.4673C3.77135 6.71281 2.55891 7.92494 1.35028 9.13357C4.77743 9.13357 8.2189 9.13357 11.6527 9.13357ZM0.773147 1.30657C0.773147 3.74736 0.773147 6.15921 0.773147 8.57139C1.99005 7.35513 3.20122 6.14395 4.42098 4.92451C3.21298 3.72637 2.00086 2.5241 0.773147 1.30657ZM8.62813 4.95217C9.82246 6.1465 11.0282 7.35226 12.2315 8.55549C12.2315 6.15667 12.2315 3.74577 12.2315 1.34886C11.0295 2.55081 9.82373 3.75658 8.62813 4.95217Z" fill="white"/>
</svg>
