<svg width="13" height="13" viewBox="0 0 13 13" fill="none" xmlns="http://www.w3.org/2000/svg">
<path d="M3.51328 0.152802C3.67335 0.219011 3.84935 0.262172 3.99057 0.356877C4.26672 0.542095 4.40542 0.820341 4.41674 1.15474C4.43601 1.72799 4.48043 2.29789 4.61704 2.8569C4.67361 3.08779 4.74485 3.31534 4.80184 3.54581C4.88691 3.88985 4.80226 4.19324 4.58519 4.47274C4.22356 4.93788 3.87156 5.41056 3.51914 5.88283C3.49903 5.91006 3.49735 5.97083 3.5137 6.00225C4.23487 7.37924 5.24561 8.48258 6.59913 9.26117C6.72568 9.33408 6.85432 9.40407 6.9792 9.48033C7.03577 9.51469 7.07726 9.51847 7.13467 9.47447C7.61531 9.10529 8.09805 8.73904 8.58121 8.37321C8.83725 8.1792 9.12555 8.12556 9.4348 8.19931C9.77968 8.28102 10.1187 8.3971 10.4673 8.45199C10.9036 8.52072 11.3461 8.55508 11.7873 8.5819C12.3002 8.61333 12.6757 8.88193 12.8069 9.35546C12.8354 9.45854 12.8454 9.57001 12.8458 9.67728C12.8492 10.4215 12.8488 11.1657 12.8471 11.91C12.8454 12.5679 12.3949 13.0079 11.737 12.9999C9.36776 12.9706 7.1904 12.3093 5.22633 10.9839C3.37457 9.73427 1.98418 8.08533 1.05306 6.0517C0.600073 5.06192 0.297103 4.02688 0.134094 2.95244C0.0791996 2.58955 0.0586663 2.22121 0.0222094 1.85538C0.0163428 1.79797 0.00754282 1.74098 0 1.68357C0 1.47447 0 1.26537 0 1.05626C0.0716567 0.891159 0.123618 0.713065 0.219161 0.563466C0.374627 0.320001 0.630244 0.215239 0.903043 0.152802C1.7734 0.152802 2.64334 0.152802 3.51328 0.152802ZM12.136 10.8012C12.136 10.4374 12.1364 10.0737 12.136 9.70955C12.1356 9.42167 12.0249 9.30098 11.7396 9.29805C10.9228 9.28967 10.1258 9.16269 9.34848 8.91169C9.20559 8.86559 9.0849 8.88654 8.96296 8.97999C8.43287 9.38772 7.89649 9.78749 7.36514 10.1935C7.22141 10.3033 7.07516 10.3348 6.91131 10.2505C6.08999 9.82772 5.32229 9.32738 4.64637 8.69294C3.86611 7.96003 3.27107 7.09261 2.77827 6.1485C2.67686 5.95406 2.68608 5.79106 2.82059 5.61631C3.22874 5.08622 3.62809 4.54984 4.03289 4.01766C4.11544 3.90912 4.14017 3.79598 4.09868 3.66524C3.84432 2.86738 3.7119 2.05024 3.70939 1.21173C3.70897 0.999273 3.57488 0.867274 3.362 0.866017C2.59682 0.862664 1.83165 0.862664 1.06647 0.866017C0.839767 0.866855 0.713634 1.00682 0.71531 1.23142C0.726206 2.50448 0.936566 3.74234 1.37154 4.93956C2.00597 6.68572 3.01419 8.18297 4.39243 9.42753C5.6173 10.5334 7.02194 11.3271 8.60049 11.8085C9.61793 12.1191 10.6605 12.2724 11.7245 12.2842C12.0052 12.2875 12.1351 12.1719 12.136 11.8915C12.1368 11.5286 12.136 11.1649 12.136 10.8012Z" fill="white"/>
</svg>
