<svg width="14" height="16" viewBox="0 0 14 16" fill="none" xmlns="http://www.w3.org/2000/svg">
<path d="M6.58813 15.0354C6.86166 15.0354 7.13486 15.0354 7.40839 15.0354C7.4481 15.0272 7.48782 15.0173 7.52787 15.0109C7.90959 14.9497 8.29747 14.9168 8.67199 14.8241C12.2632 13.9346 14.5771 10.2035 13.8743 6.44717C13.5823 4.88561 12.8767 3.55447 11.7408 2.48489C10.1198 0.95908 8.20469 0.350315 6.03455 0.635231C4.65216 0.816799 3.43443 1.40327 2.38993 2.35712C1.15988 3.4805 0.390628 4.87783 0.107507 6.55405C0.061633 6.82587 0.0352718 7.10123 1.00548e-05 7.37518C1.00548e-05 7.65797 1.00548e-05 7.94041 1.00548e-05 8.2232C0.00856872 8.27311 0.0184972 8.32266 0.0250017 8.37292C0.0582094 8.63412 0.0780652 8.89744 0.125309 9.15582C0.389943 10.5974 1.02465 11.8425 2.02191 12.8834C3.06744 13.975 4.32419 14.6623 5.79217 14.9239C6.05578 14.9709 6.32281 14.9985 6.58813 15.0354ZM7.41763 7.36845C7.41763 6.64891 7.41763 5.94069 7.41763 5.24132C8.20983 5.18469 8.99243 5.12877 9.77572 5.07249C9.94792 5.82814 10.0445 6.58945 10.064 7.36845C9.17524 7.36845 8.30226 7.36845 7.41763 7.36845ZM6.58162 7.36633C5.69529 7.36633 4.81957 7.36633 3.9322 7.36633C3.95206 6.59086 4.04689 5.83486 4.21738 5.09089C5.00923 5.14257 5.79217 5.19353 6.58162 5.24486C6.58162 5.94493 6.58162 6.64926 6.58162 7.36633ZM10.9263 7.36668C10.826 6.54733 10.7268 5.73895 10.6295 4.94507C11.153 4.80881 11.6894 4.66688 12.2276 4.5331C12.2605 4.52496 12.3241 4.56884 12.3454 4.60565C12.5925 5.03639 12.7819 5.49367 12.9185 5.97396C13.0468 6.42593 13.1331 6.88604 13.1557 7.36668C12.4012 7.36668 11.6559 7.36668 10.9263 7.36668ZM0.838759 8.2317C1.60082 8.2317 2.34919 8.2317 3.07257 8.2317C3.17288 9.03654 3.27182 9.83006 3.37007 10.6154C2.81615 10.7506 2.24717 10.8894 1.66861 11.0302C1.18385 10.173 0.903121 9.24217 0.838759 8.2317ZM0.838759 7.36668C0.904832 6.35656 1.18179 5.42536 1.66758 4.57274C2.24717 4.70652 2.81342 4.83712 3.36322 4.96419C3.26634 5.76089 3.16877 6.56326 3.0712 7.36668C2.34132 7.36668 1.59671 7.36668 0.838759 7.36668ZM3.93255 8.23347C4.82812 8.23347 5.70385 8.23347 6.57786 8.23347C6.57786 8.93708 6.57786 9.63079 6.57786 10.3132C5.78841 10.3695 5.00991 10.4247 4.22286 10.4806C4.05134 9.74759 3.95891 9.00008 3.93255 8.23347ZM10.0647 8.2317C10.0359 8.99655 9.94895 9.74334 9.7764 10.464C8.98216 10.413 8.20229 10.3627 7.41558 10.3121C7.41558 9.62336 7.41558 8.92965 7.41558 8.2317C8.29952 8.2317 9.17558 8.2317 10.0647 8.2317ZM10.6302 10.5984C10.7281 9.80316 10.825 9.01813 10.9219 8.23382C11.6538 8.23382 12.4019 8.23382 13.1581 8.23382C13.0948 9.20289 12.836 10.0998 12.3772 10.9336C12.3594 10.9658 12.2875 10.9899 12.2485 10.9814C12.089 10.946 11.9335 10.8904 11.7743 10.8533C11.3889 10.7637 11.0023 10.6809 10.6302 10.5984ZM6.58368 4.38904C5.86783 4.3448 5.16602 4.30162 4.42963 4.25597C4.58677 3.88858 4.71618 3.55235 4.87229 3.23027C5.12049 2.71742 5.43237 2.24987 5.86544 1.88108C6.07701 1.70092 6.30706 1.55404 6.58368 1.48184C6.58368 2.44666 6.58368 3.40122 6.58368 4.38904ZM7.41695 14.0695C7.41695 13.1022 7.41695 12.1483 7.41695 11.1669C8.12732 11.2108 8.82776 11.2543 9.53334 11.2982C9.35771 12.0096 8.8192 12.9832 8.32075 13.4929C8.06604 13.7538 7.77813 13.9626 7.41695 14.0695ZM9.5508 4.23933C8.81818 4.28959 8.12116 4.33737 7.41695 4.38551C7.41695 3.40299 7.41695 2.44631 7.41695 1.45246C8.62509 1.98372 9.09958 3.07454 9.5508 4.23933ZM4.45462 11.313C5.17903 11.2642 5.87536 11.2168 6.58094 11.169C6.58094 12.1533 6.58094 13.1064 6.58094 14.0684C6.29885 13.9888 6.05818 13.8415 5.84387 13.6493C5.15335 13.0314 4.77609 12.2131 4.45462 11.313ZM10.3995 11.4206C10.8719 11.5236 11.3539 11.6287 11.8596 11.7388C11.1403 12.6619 10.2851 13.3266 9.25022 13.747C9.46863 13.3701 9.69972 13.0147 9.88698 12.6364C10.0763 12.2531 10.2221 11.8464 10.3995 11.4206ZM4.75486 13.7322C3.72372 13.3315 2.87606 12.6785 2.16261 11.771C2.66963 11.6556 3.14583 11.5473 3.62854 11.4376C3.89729 12.2733 4.24785 13.0416 4.75486 13.7322ZM4.72063 1.8747C4.22423 2.55957 3.87948 3.32123 3.61793 4.14235C3.13111 4.03653 2.65936 3.93424 2.16124 3.82594C2.87264 2.92801 3.70762 2.2789 4.72063 1.8747ZM10.3683 4.11652C10.1105 3.29645 9.76168 2.55142 9.27863 1.8747C10.2793 2.27854 11.1081 2.91385 11.8041 3.78807C11.3153 3.89991 10.8507 4.00609 10.3683 4.11652Z" fill="white"/>
</svg>
